<svg xmlns="http://www.w3.org/2000/svg" width="50" height="60" viewBox="0 0 50 60">
    <g fill="none">
        <rect width="38.889" height="60" fill="#C6D3E2" opacity=".2" rx="8"/>
        <g transform="translate(7.778 11.736)">
            <path fill="#D3D8DF" d="M39.296 1.327H6.973c-1.142 0-2.046.905-2.046 2.047v25.085c0 1.144.904 2.048 2.046 2.048h32.323c1.142 0 2.046-.904 2.046-2.048V3.326c0-1.094-.904-2-2.046-2v.001z"/>
            <path fill="#FF7058" d="M39.296.232H6.973c-1.142 0-2.046.904-2.046 2.046v4.856h36.415V2.278c0-1.094-.904-2.046-2.046-2.046z"/>
            <path fill="#FFF" d="M18.779 9.133h2.903v2.903H18.78V9.133zm5.808 0h2.903v2.903h-2.903V9.133zm5.806 0h2.904v2.903h-2.904V9.133zM13.02 14.417h2.903v2.904H13.02v-2.904zm5.76 0h2.903v2.904H18.78v-2.904zm5.808 0h2.903v2.904h-2.903v-2.904zm5.806 0h2.904v2.904h-2.904v-2.904zM13.02 19.748h2.903v2.904H13.02v-2.904zm5.76 0h2.903v2.904H18.78v-2.904zm5.808 0h2.903v2.904h-2.903v-2.904zm5.806 0h2.904v2.904h-2.904v-2.904zM13.02 25.032h2.903v2.903H13.02v-2.903zm5.76 0h2.903v2.903H18.78v-2.903zm5.808 0h2.903v2.903h-2.903v-2.903z"/>
            <path fill="#5BBEE6" d="M11.258 14.797c-6.046 0-10.95 4.904-10.95 10.95 0 6.045 4.904 10.948 10.95 10.948 6.044 0 10.948-4.903 10.948-10.949 0-6.044-4.903-10.948-10.948-10.948z"/>
            <path fill="#FFF" d="M11.258 17.274c-4.666 0-8.474 3.808-8.474 8.472 0 4.666 3.808 8.473 8.474 8.473 4.664 0 8.473-3.807 8.473-8.473-.048-4.664-3.809-8.472-8.473-8.472z"/>
            <path fill="#2B3B4E" d="M10.924 20.748l-.38 6.094c-.048.38.237.76.666.76.428 0 .714-.333.714-.713l-.38-6.14c0-.144-.144-.286-.286-.286-.191.048-.286.142-.334.285z"/>
            <path fill="#324A5E" d="M15.447 24.937l-5.57.381c-.38.048-.667.334-.62.667.049.38.382.619.763.571l5.522-1.095c.142-.048.238-.143.19-.286-.048-.142-.143-.238-.285-.238z"/>
            <circle cx="11.258" cy="25.746" r="1.111" fill="#B3BCCB"/>
            <g fill="#B3BCCB" transform="translate(3.013 17.382)">
                <circle cx="8.245" cy="1.224" r="1.111"/>
                <circle cx="8.245" cy="15.172" r="1.111"/>
                <circle cx="15.195" cy="8.174" r="1.111"/>
                <circle cx="1.247" cy="8.174" r="1.111"/>
                <circle cx="13.148" cy="3.271" r="1.111"/>
                <circle cx="3.295" cy="13.124" r="1.111"/>
                <circle cx="13.148" cy="13.124" r="1.111"/>
                <circle cx="3.295" cy="3.271" r="1.111"/>
            </g>
            <g fill="#FFF" transform="translate(12.423 2.278)">
                <circle cx="19.921" cy="1.523" r="1.476"/>
                <circle cx="1.547" cy="1.523" r="1.476"/>
            </g>
        </g>
    </g>
</svg>
