<svg xmlns="http://www.w3.org/2000/svg" width="50" height="58" viewBox="0 0 50 58">
    <g fill="none">
        <rect width="37.234" height="57.447" fill="#C6D3E2" opacity=".2" rx="8"/>
        <g>
            <path fill="#626160" d="M10.305 34.872c-3.525 0-7.271 1.154-7.271 3.288 0 2.136 3.746 3.288 7.271 3.288 3.526 0 7.272-1.152 7.272-3.287s-3.746-3.288-7.272-3.288z" transform="translate(7.447 2.128)"/>
            <path fill="#0091FF" d="M10.305 12.459C4.634 12.459.018 17.019.018 22.62c0 3.479 1.677 7.22 4.98 11.118 2.433 2.87 4.83 4.715 4.93 4.793.111.085.245.128.377.128.133 0 .266-.043.377-.128.101-.078 2.499-1.922 4.93-4.793 3.305-3.898 4.98-7.638 4.98-11.117 0-5.604-4.614-10.163-10.287-10.163zm3.858 10.162c0 2.106-1.727 3.81-3.858 3.81-2.13 0-3.857-1.704-3.857-3.81 0-2.104 1.728-3.81 3.857-3.81 2.131 0 3.858 1.706 3.858 3.81z" transform="translate(7.447 2.128)"/>
            <path fill="#626160" d="M37.736 17.874c-1.038-.418-2.405-.647-3.85-.647-1.443 0-2.812.23-3.85.649-1.213.488-1.88 1.205-1.88 2.019 0 .812.667 1.53 1.88 2.019 1.038.418 2.405.648 3.851.648 1.444 0 2.81-.23 3.85-.65 1.212-.486 1.88-1.205 1.88-2.017 0-.814-.668-1.532-1.88-2.02z" transform="translate(7.447 2.128)"/>
            <path fill="#000" d="M10.305 39.93c-3.08 0-6.332-.88-7.1-2.528-.111.236-.171.49-.171.759 0 2.135 3.747 3.287 7.271 3.287 3.526 0 7.272-1.152 7.272-3.287 0-.268-.06-.522-.17-.759-.77 1.648-4.02 2.529-7.102 2.529zm27.431-19.534c-1.038.418-2.405.649-3.85.649-1.443 0-2.812-.231-3.85-.65-.818-.329-1.387-.763-1.671-1.26-.138.24-.21.495-.21.76 0 .814.668 1.53 1.882 2.019 1.037.418 2.404.649 3.85.649 1.444 0 2.81-.231 3.85-.65 1.212-.489 1.88-1.204 1.88-2.018 0-.266-.071-.52-.208-.76-.286.497-.855.931-1.673 1.26z" transform="translate(7.447 2.128)"/>
            <path fill="#C15B5B" d="M33.886 0c-4.437 0-8.048 3.567-8.048 7.951 0 2.709 1.298 5.614 3.86 8.636 1.88 2.217 3.734 3.644 3.812 3.703.111.086.244.128.376.128.133 0 .266-.042.377-.128.078-.06 1.933-1.486 3.811-3.703 2.562-3.022 3.861-5.927 3.861-8.636 0-4.384-3.61-7.951-8.049-7.951zm2.965 7.951c0 1.617-1.328 2.929-2.965 2.929-1.637 0-2.965-1.31-2.965-2.929 0-1.617 1.328-2.929 2.965-2.929 1.638 0 2.965 1.312 2.965 2.93z" transform="translate(7.447 2.128)"/>
            <path fill="#131414" d="M19.848 38.77c-.338 0-.613-.271-.615-.606-.001-.335.272-.609.613-.61l.813-.004h.002c.338 0 .613.27.616.605 0 .335-.274.609-.613.61l-.813.004h-.003zm3.25-.016c-.338 0-.613-.27-.615-.605-.001-.335.273-.609.613-.61l.813-.004h.002c.339 0 .613.27.616.605 0 .336-.274.609-.613.611l-.813.003H23.1zm3.25-.015c-.337 0-.613-.27-.614-.604-.002-.336.272-.61.612-.61l.813-.005h.003c.338 0 .612.27.615.607 0 .335-.273.608-.613.61l-.812.002h-.003zm3.25-.013c-.337 0-.613-.27-.614-.606-.002-.336.272-.61.613-.61l.812-.004h.003c.338 0 .614.27.615.605.002.336-.273.61-.612.61l-.813.005H29.6zm3.25-.015c-.337 0-.613-.27-.614-.606-.001-.335.272-.608.613-.61l.812-.004h.003c.338 0 .614.27.615.606.002.335-.273.608-.612.61l-.813.004h-.003zm3.252-.015c-.34 0-.614-.27-.616-.605-.001-.336.272-.61.613-.61h.115c.206-.002.411-.016.614-.044.336-.047.646.186.693.52.046.331-.188.638-.525.684-.256.036-.516.054-.777.054H36.1zm3.06-.915c-.195 0-.387-.092-.506-.262-.193-.276-.124-.654.155-.846.196-.134.382-.285.556-.446.245-.232.635-.224.869.02.234.242.226.627-.021.86-.218.205-.454.395-.702.565-.108.074-.23.109-.351.109zm1.946-2.507c-.069 0-.138-.011-.207-.036-.32-.112-.487-.46-.372-.776.08-.222.142-.45.186-.681.064-.331.385-.548.718-.486.334.062.553.38.491.71-.056.293-.136.585-.237.865-.09.25-.326.404-.58.404h.001zm.1-3.157c-.268 0-.515-.173-.592-.44-.065-.226-.15-.45-.25-.662-.144-.304-.01-.666.298-.809.307-.141.673-.01.817.295.127.27.234.553.319.84.092.323-.096.66-.422.753-.058.016-.114.023-.17.023zm-1.785-2.622c-.134 0-.268-.043-.38-.131-.188-.146-.388-.278-.596-.394-.295-.165-.4-.535-.234-.827.167-.293.542-.396.838-.231.263.145.517.314.753.498.267.208.313.59.102.854-.121.152-.3.23-.483.23zm-2.995-1.101h-.028c-.07-.005-.138-.006-.208-.006h-.578c-.34 0-.615-.272-.615-.607 0-.336.275-.609.615-.609h.578c.087 0 .175.002.262.007.34.015.602.298.587.634-.015.325-.287.58-.613.58zm-3.252-.006h-.812c-.34 0-.615-.272-.615-.607 0-.336.275-.609.615-.609h.812c.34 0 .615.273.615.609 0 .335-.275.607-.615.607zm-3.25 0h-.812c-.34 0-.615-.272-.615-.607 0-.336.275-.609.615-.609h.812c.34 0 .615.273.615.609 0 .335-.275.607-.615.607zm-3.25 0h-.812c-.34 0-.616-.272-.616-.607 0-.336.276-.609.616-.609h.811c.34 0 .616.273.616.609 0 .335-.276.607-.616.607zm-3.135-.604c-.111 0-.225-.03-.327-.094-.264-.164-.51-.356-.736-.57-.245-.233-.253-.617-.017-.86.235-.24.624-.25.87-.016.165.157.347.297.54.418.286.178.374.554.192.838-.117.183-.317.284-.522.284zm-1.787-2.574c-.29 0-.547-.203-.603-.493-.056-.285-.085-.58-.085-.872v-.05c.004-.332.279-.6.615-.6h.007c.34.004.612.28.608.616v.033c0 .216.02.432.062.641.064.33-.153.649-.486.713-.04.007-.08.01-.118.01v.002zm.672-3.051c-.124 0-.25-.038-.358-.114-.277-.196-.34-.576-.142-.85.182-.25.392-.482.62-.69.25-.228.639-.214.87.033.23.247.215.631-.035.859-.168.154-.322.324-.455.508-.12.165-.308.254-.5.254zm2.708-1.609c-.303 0-.567-.222-.609-.528-.044-.333.192-.638.53-.683.2-.026.406-.039.61-.039h.28c.341 0 .617.272.617.607 0 .337-.277.608-.616.608h-.281c-.15 0-.301.01-.45.03-.027.003-.053.005-.081.005z" transform="translate(7.447 2.128)"/>
        </g>
    </g>
</svg>
